<?xml version="1.0" encoding="UTF-8" standalone="no"?>
<!DOCTYPE svg PUBLIC "-//W3C//DTD SVG 1.1//EN"
 "http://www.w3.org/Graphics/SVG/1.1/DTD/svg11.dtd">
<!-- Generated by graphviz version 2.43.0 (0)
 -->
<!-- Title: %3 Pages: 1 -->
<svg width="1897pt" height="238pt"
 viewBox="0.00 0.00 1897.00 237.74" xmlns="http://www.w3.org/2000/svg" xmlns:xlink="http://www.w3.org/1999/xlink">
<g id="graph0" class="graph" transform="scale(1 1) rotate(0) translate(36 201.74)">
<title>%3</title>
<polygon fill="dimgray" stroke="transparent" points="-36,36 -36,-201.74 1861,-201.74 1861,36 -36,36"/>
<text text-anchor="middle" x="912.5" y="-150.54" font-family="Helvetica,sans-Serif" font-size="14.00">Sweep&#39;s Plan &amp; Progress</text>
<!-- start -->
<g id="node1" class="node">
<title>start</title>
</g>
<!-- 47f0c736&#45;e57d&#45;4cf6&#45;b2fc&#45;325a3b11f077 -->
<g id="node3" class="node">
<title>47f0c736&#45;e57d&#45;4cf6&#45;b2fc&#45;325a3b11f077</title>
<ellipse fill="#0ee832" stroke="black" cx="251.5" cy="-99.87" rx="198.89" ry="26.74"/>
<text text-anchor="middle" x="251.5" y="-103.67" font-family="Helvetica,sans-Serif" font-size="14.00">✓ Modify</text>
<text text-anchor="middle" x="251.5" y="-88.67" font-family="Helvetica,sans-Serif" font-size="14.00">ElysiumOS/src/utils/UtilityHelpers.java</text>
</g>
<!-- start&#45;&gt;47f0c736&#45;e57d&#45;4cf6&#45;b2fc&#45;325a3b11f077 -->
<g id="edge6" class="edge">
<title>start&#45;&gt;47f0c736&#45;e57d&#45;4cf6&#45;b2fc&#45;325a3b11f077</title>
<path fill="none" stroke="black" d="M1.22,-99.87C4.69,-99.87 20.42,-99.87 42.44,-99.87"/>
<polygon fill="black" stroke="black" points="42.61,-103.37 52.61,-99.87 42.61,-96.37 42.61,-103.37"/>
<text text-anchor="middle" x="26.9" y="-106.67" font-family="Helvetica,sans-Serif" font-size="14.00">Start</text>
</g>
<!-- end -->
<g id="node2" class="node">
<title>end</title>
</g>
<!-- 62765e58&#45;00e4&#45;4c01&#45;ae31&#45;647be83f4192 -->
<g id="node4" class="node">
<title>62765e58&#45;00e4&#45;4c01&#45;ae31&#45;647be83f4192</title>
<ellipse fill="#0ee832" stroke="black" cx="804.5" cy="-99.87" rx="304.53" ry="26.74"/>
<text text-anchor="middle" x="804.5" y="-103.67" font-family="Helvetica,sans-Serif" font-size="14.00">✓ Modify</text>
<text text-anchor="middle" x="804.5" y="-88.67" font-family="Helvetica,sans-Serif" font-size="14.00">ElysiumOS/src/main/java/blockchain/BlockchainService.java</text>
</g>
<!-- 47f0c736&#45;e57d&#45;4cf6&#45;b2fc&#45;325a3b11f077&#45;&gt;62765e58&#45;00e4&#45;4c01&#45;ae31&#45;647be83f4192 -->
<g id="edge2" class="edge">
<title>47f0c736&#45;e57d&#45;4cf6&#45;b2fc&#45;325a3b11f077&#45;&gt;62765e58&#45;00e4&#45;4c01&#45;ae31&#45;647be83f4192</title>
<path fill="none" stroke="black" d="M450.23,-99.87C463.38,-99.87 476.52,-99.87 489.66,-99.87"/>
<polygon fill="black" stroke="black" points="489.71,-103.37 499.71,-99.87 489.71,-96.37 489.71,-103.37"/>
</g>
<!-- 5ae9302b&#45;0cd3&#45;4db5&#45;873e&#45;63c4c1fb3f6d -->
<g id="node6" class="node">
<title>5ae9302b&#45;0cd3&#45;4db5&#45;873e&#45;63c4c1fb3f6d</title>
<polygon fill="#0ee832" stroke="black" points="475.5,-36 1.5,-36 1.5,0 475.5,0 475.5,-36"/>
<text text-anchor="middle" x="238.5" y="-14.3" font-family="Helvetica,sans-Serif" font-size="14.00">✓ Run GitHub Actions for `ElysiumOS/src/utils/UtilityHelpers.java`</text>
</g>
<!-- 47f0c736&#45;e57d&#45;4cf6&#45;b2fc&#45;325a3b11f077&#45;&gt;5ae9302b&#45;0cd3&#45;4db5&#45;873e&#45;63c4c1fb3f6d -->
<g id="edge1" class="edge">
<title>47f0c736&#45;e57d&#45;4cf6&#45;b2fc&#45;325a3b11f077&#45;&gt;5ae9302b&#45;0cd3&#45;4db5&#45;873e&#45;63c4c1fb3f6d</title>
<path fill="none" stroke="black" stroke-dasharray="5,2" d="M247.24,-72.72C245.85,-64.18 244.31,-54.68 242.91,-46.08"/>
<polygon fill="black" stroke="black" points="246.35,-45.45 241.29,-36.15 239.44,-46.58 246.35,-45.45"/>
</g>
<!-- ebe787b4&#45;8e79&#45;42d9&#45;9fcd&#45;59918acaf717 -->
<g id="node5" class="node">
<title>ebe787b4&#45;8e79&#45;42d9&#45;9fcd&#45;59918acaf717</title>
<ellipse fill="white" stroke="black" cx="1455.5" cy="-99.87" rx="311.25" ry="26.74"/>
<text text-anchor="middle" x="1455.5" y="-103.67" font-family="Helvetica,sans-Serif" font-size="14.00">▶ Modify</text>
<text text-anchor="middle" x="1455.5" y="-88.67" font-family="Helvetica,sans-Serif" font-size="14.00">ElysiumOS/src/main/java/automation/AutomationService.java</text>
</g>
<!-- 62765e58&#45;00e4&#45;4c01&#45;ae31&#45;647be83f4192&#45;&gt;ebe787b4&#45;8e79&#45;42d9&#45;9fcd&#45;59918acaf717 -->
<g id="edge4" class="edge">
<title>62765e58&#45;00e4&#45;4c01&#45;ae31&#45;647be83f4192&#45;&gt;ebe787b4&#45;8e79&#45;42d9&#45;9fcd&#45;59918acaf717</title>
<path fill="none" stroke="black" d="M1109.34,-99.87C1117.59,-99.87 1125.84,-99.87 1134.09,-99.87"/>
<polygon fill="black" stroke="black" points="1134.16,-103.37 1144.16,-99.87 1134.16,-96.37 1134.16,-103.37"/>
</g>
<!-- cad28a77&#45;0925&#45;49ef&#45;bfe8&#45;ac5e60f87662 -->
<g id="node7" class="node">
<title>cad28a77&#45;0925&#45;49ef&#45;bfe8&#45;ac5e60f87662</title>
<polygon fill="yellow" stroke="black" points="1119.5,-36 493.5,-36 493.5,0 1119.5,0 1119.5,-36"/>
<text text-anchor="middle" x="806.5" y="-14.3" font-family="Helvetica,sans-Serif" font-size="14.00">⋯ Run GitHub Actions for `ElysiumOS/src/main/java/blockchain/BlockchainService.java`</text>
</g>
<!-- 62765e58&#45;00e4&#45;4c01&#45;ae31&#45;647be83f4192&#45;&gt;cad28a77&#45;0925&#45;49ef&#45;bfe8&#45;ac5e60f87662 -->
<g id="edge3" class="edge">
<title>62765e58&#45;00e4&#45;4c01&#45;ae31&#45;647be83f4192&#45;&gt;cad28a77&#45;0925&#45;49ef&#45;bfe8&#45;ac5e60f87662</title>
<path fill="none" stroke="black" stroke-dasharray="5,2" d="M805.15,-72.72C805.37,-64.27 805.6,-54.89 805.81,-46.36"/>
<polygon fill="black" stroke="black" points="809.32,-46.23 806.07,-36.15 802.32,-46.06 809.32,-46.23"/>
</g>
<!-- ebe787b4&#45;8e79&#45;42d9&#45;9fcd&#45;59918acaf717&#45;&gt;end -->
<g id="edge7" class="edge">
<title>ebe787b4&#45;8e79&#45;42d9&#45;9fcd&#45;59918acaf717&#45;&gt;end</title>
<path fill="none" stroke="black" d="M1766.84,-99.87C1787.17,-99.87 1803.52,-99.87 1813.54,-99.87"/>
<polygon fill="black" stroke="black" points="1813.9,-103.37 1823.9,-99.87 1813.9,-96.37 1813.9,-103.37"/>
<text text-anchor="middle" x="1795.31" y="-106.67" font-family="Helvetica,sans-Serif" font-size="14.00">Finish</text>
</g>
<!-- d06db6fb&#45;191b&#45;4250&#45;ab46&#45;f6d6b27aef4e -->
<g id="node8" class="node">
<title>d06db6fb&#45;191b&#45;4250&#45;ab46&#45;f6d6b27aef4e</title>
<polygon fill="white" stroke="black" points="1771.5,-36 1139.5,-36 1139.5,0 1771.5,0 1771.5,-36"/>
<text text-anchor="middle" x="1455.5" y="-14.3" font-family="Helvetica,sans-Serif" font-size="14.00">▶ Run GitHub Actions for `ElysiumOS/src/main/java/automation/AutomationService.java`</text>
</g>
<!-- ebe787b4&#45;8e79&#45;42d9&#45;9fcd&#45;59918acaf717&#45;&gt;d06db6fb&#45;191b&#45;4250&#45;ab46&#45;f6d6b27aef4e -->
<g id="edge5" class="edge">
<title>ebe787b4&#45;8e79&#45;42d9&#45;9fcd&#45;59918acaf717&#45;&gt;d06db6fb&#45;191b&#45;4250&#45;ab46&#45;f6d6b27aef4e</title>
<path fill="none" stroke="black" stroke-dasharray="5,2" d="M1455.5,-72.72C1455.5,-64.27 1455.5,-54.89 1455.5,-46.36"/>
<polygon fill="black" stroke="black" points="1459,-46.15 1455.5,-36.15 1452,-46.15 1459,-46.15"/>
</g>
</g>
</svg>
