<?xml version="1.0" encoding="UTF-8" standalone="no"?>
<!DOCTYPE svg PUBLIC "-//W3C//DTD SVG 1.1//EN"
 "http://www.w3.org/Graphics/SVG/1.1/DTD/svg11.dtd">
<!-- Generated by graphviz version 2.43.0 (0)
 -->
<!-- Title: %3 Pages: 1 -->
<svg width="479pt" height="165pt"
 viewBox="0.00 0.00 479.00 164.74" xmlns="http://www.w3.org/2000/svg" xmlns:xlink="http://www.w3.org/1999/xlink">
<g id="graph0" class="graph" transform="scale(1 1) rotate(0) translate(36 128.74)">
<title>%3</title>
<polygon fill="dimgray" stroke="transparent" points="-36,36 -36,-128.74 443,-128.74 443,36 -36,36"/>
<text text-anchor="middle" x="203.5" y="-77.54" font-family="Helvetica,sans-Serif" font-size="14.00">Sweep&#39;s Plan &amp; Progress</text>
<!-- start -->
<g id="node1" class="node">
<title>start</title>
</g>
<!-- 5a391dbd&#45;fefb&#45;4e66&#45;8a6a&#45;3febeb0b3f88 -->
<g id="node3" class="node">
<title>5a391dbd&#45;fefb&#45;4e66&#45;8a6a&#45;3febeb0b3f88</title>
<ellipse fill="#0ee832" stroke="black" cx="200.5" cy="-26.87" rx="148.48" ry="26.74"/>
<text text-anchor="middle" x="200.5" y="-30.67" font-family="Helvetica,sans-Serif" font-size="14.00">✓ Create</text>
<text text-anchor="middle" x="200.5" y="-15.67" font-family="Helvetica,sans-Serif" font-size="14.00">unknown_frontend_file.html</text>
</g>
<!-- start&#45;&gt;5a391dbd&#45;fefb&#45;4e66&#45;8a6a&#45;3febeb0b3f88 -->
<g id="edge1" class="edge">
<title>start&#45;&gt;5a391dbd&#45;fefb&#45;4e66&#45;8a6a&#45;3febeb0b3f88</title>
<path fill="none" stroke="black" d="M1.07,-26.87C4.22,-26.87 20.05,-26.87 41.53,-26.87"/>
<polygon fill="black" stroke="black" points="41.77,-30.37 51.77,-26.87 41.77,-23.37 41.77,-30.37"/>
<text text-anchor="middle" x="26.5" y="-33.67" font-family="Helvetica,sans-Serif" font-size="14.00">Start</text>
</g>
<!-- end -->
<g id="node2" class="node">
<title>end</title>
</g>
<!-- 5a391dbd&#45;fefb&#45;4e66&#45;8a6a&#45;3febeb0b3f88&#45;&gt;end -->
<g id="edge2" class="edge">
<title>5a391dbd&#45;fefb&#45;4e66&#45;8a6a&#45;3febeb0b3f88&#45;&gt;end</title>
<path fill="none" stroke="black" d="M349.12,-26.87C368.67,-26.87 385.47,-26.87 395.75,-26.87"/>
<polygon fill="black" stroke="black" points="395.86,-30.37 405.86,-26.87 395.86,-23.37 395.86,-30.37"/>
<text text-anchor="middle" x="377.5" y="-33.67" font-family="Helvetica,sans-Serif" font-size="14.00">Finish</text>
</g>
</g>
</svg>
