<?xml version="1.0" encoding="UTF-8" standalone="no"?>
<!DOCTYPE svg PUBLIC "-//W3C//DTD SVG 1.1//EN"
 "http://www.w3.org/Graphics/SVG/1.1/DTD/svg11.dtd">
<!-- Generated by graphviz version 2.43.0 (0)
 -->
<!-- Title: %3 Pages: 1 -->
<svg width="2263pt" height="238pt"
 viewBox="0.00 0.00 2262.50 237.74" xmlns="http://www.w3.org/2000/svg" xmlns:xlink="http://www.w3.org/1999/xlink">
<g id="graph0" class="graph" transform="scale(1 1) rotate(0) translate(36 201.74)">
<title>%3</title>
<polygon fill="dimgray" stroke="transparent" points="-36,36 -36,-201.74 2226.5,-201.74 2226.5,36 -36,36"/>
<text text-anchor="middle" x="1095.25" y="-150.54" font-family="Helvetica,sans-Serif" font-size="14.00">Sweep&#39;s Plan &amp; Progress</text>
<!-- start -->
<g id="node1" class="node">
<title>start</title>
</g>
<!-- e35a78d5&#45;9e5c&#45;40c5&#45;8f10&#45;acc8b4c501bd -->
<g id="node3" class="node">
<title>e35a78d5&#45;9e5c&#45;40c5&#45;8f10&#45;acc8b4c501bd</title>
<ellipse fill="#0ee832" stroke="black" cx="251.5" cy="-99.87" rx="198.89" ry="26.74"/>
<text text-anchor="middle" x="251.5" y="-103.67" font-family="Helvetica,sans-Serif" font-size="14.00">✓ Modify</text>
<text text-anchor="middle" x="251.5" y="-88.67" font-family="Helvetica,sans-Serif" font-size="14.00">ElysiumOS/docs/LocalizationGuide.md</text>
</g>
<!-- start&#45;&gt;e35a78d5&#45;9e5c&#45;40c5&#45;8f10&#45;acc8b4c501bd -->
<g id="edge8" class="edge">
<title>start&#45;&gt;e35a78d5&#45;9e5c&#45;40c5&#45;8f10&#45;acc8b4c501bd</title>
<path fill="none" stroke="black" d="M1.22,-99.87C4.69,-99.87 20.42,-99.87 42.44,-99.87"/>
<polygon fill="black" stroke="black" points="42.61,-103.37 52.61,-99.87 42.61,-96.37 42.61,-103.37"/>
<text text-anchor="middle" x="26.9" y="-106.67" font-family="Helvetica,sans-Serif" font-size="14.00">Start</text>
</g>
<!-- end -->
<g id="node2" class="node">
<title>end</title>
</g>
<!-- bbb854e2&#45;369d&#45;466e&#45;ab7e&#45;f2cc0f153f04 -->
<g id="node4" class="node">
<title>bbb854e2&#45;369d&#45;466e&#45;ab7e&#45;f2cc0f153f04</title>
<ellipse fill="#0ee832" stroke="black" cx="813.5" cy="-99.87" rx="315.24" ry="26.74"/>
<text text-anchor="middle" x="813.5" y="-103.67" font-family="Helvetica,sans-Serif" font-size="14.00">✓ Modify</text>
<text text-anchor="middle" x="813.5" y="-88.67" font-family="Helvetica,sans-Serif" font-size="14.00">ElysiumOS/docs/DesignDocs/BlockchainIntegrationDesign.md</text>
</g>
<!-- e35a78d5&#45;9e5c&#45;40c5&#45;8f10&#45;acc8b4c501bd&#45;&gt;bbb854e2&#45;369d&#45;466e&#45;ab7e&#45;f2cc0f153f04 -->
<g id="edge2" class="edge">
<title>e35a78d5&#45;9e5c&#45;40c5&#45;8f10&#45;acc8b4c501bd&#45;&gt;bbb854e2&#45;369d&#45;466e&#45;ab7e&#45;f2cc0f153f04</title>
<path fill="none" stroke="black" d="M450.45,-99.87C462.95,-99.87 475.44,-99.87 487.94,-99.87"/>
<polygon fill="black" stroke="black" points="487.96,-103.37 497.96,-99.87 487.96,-96.37 487.96,-103.37"/>
</g>
<!-- 37e95a33&#45;1ed4&#45;48be&#45;a180&#45;3b3f5fec64ec -->
<g id="node7" class="node">
<title>37e95a33&#45;1ed4&#45;48be&#45;a180&#45;3b3f5fec64ec</title>
<polygon fill="#0ee832" stroke="black" points="476.5,-36 2.5,-36 2.5,0 476.5,0 476.5,-36"/>
<text text-anchor="middle" x="239.5" y="-14.3" font-family="Helvetica,sans-Serif" font-size="14.00">✓ Run GitHub Actions for `ElysiumOS/docs/LocalizationGuide.md`</text>
</g>
<!-- e35a78d5&#45;9e5c&#45;40c5&#45;8f10&#45;acc8b4c501bd&#45;&gt;37e95a33&#45;1ed4&#45;48be&#45;a180&#45;3b3f5fec64ec -->
<g id="edge1" class="edge">
<title>e35a78d5&#45;9e5c&#45;40c5&#45;8f10&#45;acc8b4c501bd&#45;&gt;37e95a33&#45;1ed4&#45;48be&#45;a180&#45;3b3f5fec64ec</title>
<path fill="none" stroke="black" stroke-dasharray="5,2" d="M247.57,-72.72C246.29,-64.18 244.86,-54.68 243.57,-46.08"/>
<polygon fill="black" stroke="black" points="247.02,-45.52 242.08,-36.15 240.1,-46.56 247.02,-45.52"/>
</g>
<!-- 81e0e6ed&#45;b88b&#45;4950&#45;92b3&#45;2dcf437780d4 -->
<g id="node5" class="node">
<title>81e0e6ed&#45;b88b&#45;4950&#45;92b3&#45;2dcf437780d4</title>
<ellipse fill="#0ee832" stroke="black" cx="1423.5" cy="-99.87" rx="249.72" ry="26.74"/>
<text text-anchor="middle" x="1423.5" y="-103.67" font-family="Helvetica,sans-Serif" font-size="14.00">✓ Modify</text>
<text text-anchor="middle" x="1423.5" y="-88.67" font-family="Helvetica,sans-Serif" font-size="14.00">ElysiumOS/docs/DesignDocs/3DWorldDesign.md</text>
</g>
<!-- bbb854e2&#45;369d&#45;466e&#45;ab7e&#45;f2cc0f153f04&#45;&gt;81e0e6ed&#45;b88b&#45;4950&#45;92b3&#45;2dcf437780d4 -->
<g id="edge4" class="edge">
<title>bbb854e2&#45;369d&#45;466e&#45;ab7e&#45;f2cc0f153f04&#45;&gt;81e0e6ed&#45;b88b&#45;4950&#45;92b3&#45;2dcf437780d4</title>
<path fill="none" stroke="black" d="M1128.92,-99.87C1140.49,-99.87 1152.06,-99.87 1163.63,-99.87"/>
<polygon fill="black" stroke="black" points="1163.8,-103.37 1173.8,-99.87 1163.8,-96.37 1163.8,-103.37"/>
</g>
<!-- abf39f17&#45;c3af&#45;4618&#45;ac57&#45;e59a22ac06b7 -->
<g id="node8" class="node">
<title>abf39f17&#45;c3af&#45;4618&#45;ac57&#45;e59a22ac06b7</title>
<polygon fill="#0ee832" stroke="black" points="1132.5,-36 494.5,-36 494.5,0 1132.5,0 1132.5,-36"/>
<text text-anchor="middle" x="813.5" y="-14.3" font-family="Helvetica,sans-Serif" font-size="14.00">✓ Run GitHub Actions for `ElysiumOS/docs/DesignDocs/BlockchainIntegrationDesign.md`</text>
</g>
<!-- bbb854e2&#45;369d&#45;466e&#45;ab7e&#45;f2cc0f153f04&#45;&gt;abf39f17&#45;c3af&#45;4618&#45;ac57&#45;e59a22ac06b7 -->
<g id="edge3" class="edge">
<title>bbb854e2&#45;369d&#45;466e&#45;ab7e&#45;f2cc0f153f04&#45;&gt;abf39f17&#45;c3af&#45;4618&#45;ac57&#45;e59a22ac06b7</title>
<path fill="none" stroke="black" stroke-dasharray="5,2" d="M813.5,-72.72C813.5,-64.27 813.5,-54.89 813.5,-46.36"/>
<polygon fill="black" stroke="black" points="817,-46.15 813.5,-36.15 810,-46.15 817,-46.15"/>
</g>
<!-- efa82b20&#45;fbed&#45;42ee&#45;ab77&#45;b6a173a802f1 -->
<g id="node6" class="node">
<title>efa82b20&#45;fbed&#45;42ee&#45;ab77&#45;b6a173a802f1</title>
<ellipse fill="#0ee832" stroke="black" cx="1930.5" cy="-99.87" rx="198.89" ry="26.74"/>
<text text-anchor="middle" x="1930.5" y="-103.67" font-family="Helvetica,sans-Serif" font-size="14.00">✓ Modify</text>
<text text-anchor="middle" x="1930.5" y="-88.67" font-family="Helvetica,sans-Serif" font-size="14.00">ElysiumOS/docs/LocalizationGuide.md</text>
</g>
<!-- 81e0e6ed&#45;b88b&#45;4950&#45;92b3&#45;2dcf437780d4&#45;&gt;efa82b20&#45;fbed&#45;42ee&#45;ab77&#45;b6a173a802f1 -->
<g id="edge6" class="edge">
<title>81e0e6ed&#45;b88b&#45;4950&#45;92b3&#45;2dcf437780d4&#45;&gt;efa82b20&#45;fbed&#45;42ee&#45;ab77&#45;b6a173a802f1</title>
<path fill="none" stroke="black" d="M1673.53,-99.87C1689.6,-99.87 1705.68,-99.87 1721.75,-99.87"/>
<polygon fill="black" stroke="black" points="1721.75,-103.37 1731.75,-99.87 1721.75,-96.37 1721.75,-103.37"/>
</g>
<!-- 516ff600&#45;6aac&#45;4ece&#45;b32f&#45;04cde04002df -->
<g id="node9" class="node">
<title>516ff600&#45;6aac&#45;4ece&#45;b32f&#45;04cde04002df</title>
<polygon fill="#0ee832" stroke="black" points="1696.5,-36 1150.5,-36 1150.5,0 1696.5,0 1696.5,-36"/>
<text text-anchor="middle" x="1423.5" y="-14.3" font-family="Helvetica,sans-Serif" font-size="14.00">✓ Run GitHub Actions for `ElysiumOS/docs/DesignDocs/3DWorldDesign.md`</text>
</g>
<!-- 81e0e6ed&#45;b88b&#45;4950&#45;92b3&#45;2dcf437780d4&#45;&gt;516ff600&#45;6aac&#45;4ece&#45;b32f&#45;04cde04002df -->
<g id="edge5" class="edge">
<title>81e0e6ed&#45;b88b&#45;4950&#45;92b3&#45;2dcf437780d4&#45;&gt;516ff600&#45;6aac&#45;4ece&#45;b32f&#45;04cde04002df</title>
<path fill="none" stroke="black" stroke-dasharray="5,2" d="M1423.5,-72.72C1423.5,-64.27 1423.5,-54.89 1423.5,-46.36"/>
<polygon fill="black" stroke="black" points="1427,-46.15 1423.5,-36.15 1420,-46.15 1427,-46.15"/>
</g>
<!-- efa82b20&#45;fbed&#45;42ee&#45;ab77&#45;b6a173a802f1&#45;&gt;end -->
<g id="edge9" class="edge">
<title>efa82b20&#45;fbed&#45;42ee&#45;ab77&#45;b6a173a802f1&#45;&gt;end</title>
<path fill="none" stroke="black" d="M2129.5,-99.87C2149.53,-99.87 2166.25,-99.87 2176.51,-99.87"/>
<polygon fill="black" stroke="black" points="2176.87,-103.37 2186.87,-99.87 2176.87,-96.37 2176.87,-103.37"/>
<text text-anchor="middle" x="2158.1" y="-106.67" font-family="Helvetica,sans-Serif" font-size="14.00">Finish</text>
</g>
<!-- 6029c2a8&#45;02f4&#45;44e6&#45;9eee&#45;efe3b6af2930 -->
<g id="node10" class="node">
<title>6029c2a8&#45;02f4&#45;44e6&#45;9eee&#45;efe3b6af2930</title>
<polygon fill="yellow" stroke="black" points="2190.5,-36 1714.5,-36 1714.5,0 2190.5,0 2190.5,-36"/>
<text text-anchor="middle" x="1952.5" y="-14.3" font-family="Helvetica,sans-Serif" font-size="14.00">⋯ Run GitHub Actions for `ElysiumOS/docs/LocalizationGuide.md`</text>
</g>
<!-- efa82b20&#45;fbed&#45;42ee&#45;ab77&#45;b6a173a802f1&#45;&gt;6029c2a8&#45;02f4&#45;44e6&#45;9eee&#45;efe3b6af2930 -->
<g id="edge7" class="edge">
<title>efa82b20&#45;fbed&#45;42ee&#45;ab77&#45;b6a173a802f1&#45;&gt;6029c2a8&#45;02f4&#45;44e6&#45;9eee&#45;efe3b6af2930</title>
<path fill="none" stroke="black" stroke-dasharray="5,2" d="M1937.7,-72.72C1940.08,-64.08 1942.73,-54.47 1945.12,-45.79"/>
<polygon fill="black" stroke="black" points="1948.5,-46.72 1947.78,-36.15 1941.75,-44.86 1948.5,-46.72"/>
</g>
</g>
</svg>
