<?xml version="1.0" encoding="UTF-8" standalone="no"?>
<!DOCTYPE svg PUBLIC "-//W3C//DTD SVG 1.1//EN"
 "http://www.w3.org/Graphics/SVG/1.1/DTD/svg11.dtd">
<!-- Generated by graphviz version 2.43.0 (0)
 -->
<!-- Title: %3 Pages: 1 -->
<svg width="1895pt" height="238pt"
 viewBox="0.00 0.00 1895.00 237.74" xmlns="http://www.w3.org/2000/svg" xmlns:xlink="http://www.w3.org/1999/xlink">
<g id="graph0" class="graph" transform="scale(1 1) rotate(0) translate(36 201.74)">
<title>%3</title>
<polygon fill="dimgray" stroke="transparent" points="-36,36 -36,-201.74 1859,-201.74 1859,36 -36,36"/>
<text text-anchor="middle" x="911.5" y="-150.54" font-family="Helvetica,sans-Serif" font-size="14.00">Sweep&#39;s Plan &amp; Progress</text>
<!-- start -->
<g id="node1" class="node">
<title>start</title>
</g>
<!-- 47f0c736&#45;e57d&#45;4cf6&#45;b2fc&#45;325a3b11f077 -->
<g id="node3" class="node">
<title>47f0c736&#45;e57d&#45;4cf6&#45;b2fc&#45;325a3b11f077</title>
<ellipse fill="yellow" stroke="black" cx="251.5" cy="-99.87" rx="198.89" ry="26.74"/>
<text text-anchor="middle" x="251.5" y="-103.67" font-family="Helvetica,sans-Serif" font-size="14.00">⋯ Modify</text>
<text text-anchor="middle" x="251.5" y="-88.67" font-family="Helvetica,sans-Serif" font-size="14.00">ElysiumOS/src/utils/UtilityHelpers.java</text>
</g>
<!-- start&#45;&gt;47f0c736&#45;e57d&#45;4cf6&#45;b2fc&#45;325a3b11f077 -->
<g id="edge6" class="edge">
<title>start&#45;&gt;47f0c736&#45;e57d&#45;4cf6&#45;b2fc&#45;325a3b11f077</title>
<path fill="none" stroke="black" d="M1.22,-99.87C4.69,-99.87 20.42,-99.87 42.44,-99.87"/>
<polygon fill="black" stroke="black" points="42.61,-103.37 52.61,-99.87 42.61,-96.37 42.61,-103.37"/>
<text text-anchor="middle" x="26.9" y="-106.67" font-family="Helvetica,sans-Serif" font-size="14.00">Start</text>
</g>
<!-- end -->
<g id="node2" class="node">
<title>end</title>
</g>
<!-- 62765e58&#45;00e4&#45;4c01&#45;ae31&#45;647be83f4192 -->
<g id="node4" class="node">
<title>62765e58&#45;00e4&#45;4c01&#45;ae31&#45;647be83f4192</title>
<ellipse fill="white" stroke="black" cx="802.5" cy="-99.87" rx="304.53" ry="26.74"/>
<text text-anchor="middle" x="802.5" y="-103.67" font-family="Helvetica,sans-Serif" font-size="14.00">▶ Modify</text>
<text text-anchor="middle" x="802.5" y="-88.67" font-family="Helvetica,sans-Serif" font-size="14.00">ElysiumOS/src/main/java/blockchain/BlockchainService.java</text>
</g>
<!-- 47f0c736&#45;e57d&#45;4cf6&#45;b2fc&#45;325a3b11f077&#45;&gt;62765e58&#45;00e4&#45;4c01&#45;ae31&#45;647be83f4192 -->
<g id="edge2" class="edge">
<title>47f0c736&#45;e57d&#45;4cf6&#45;b2fc&#45;325a3b11f077&#45;&gt;62765e58&#45;00e4&#45;4c01&#45;ae31&#45;647be83f4192</title>
<path fill="none" stroke="black" d="M450.32,-99.87C462.59,-99.87 474.86,-99.87 487.13,-99.87"/>
<polygon fill="black" stroke="black" points="487.44,-103.37 497.44,-99.87 487.44,-96.37 487.44,-103.37"/>
</g>
<!-- 5ae9302b&#45;0cd3&#45;4db5&#45;873e&#45;63c4c1fb3f6d -->
<g id="node6" class="node">
<title>5ae9302b&#45;0cd3&#45;4db5&#45;873e&#45;63c4c1fb3f6d</title>
<polygon fill="white" stroke="black" points="476,-36 3,-36 3,0 476,0 476,-36"/>
<text text-anchor="middle" x="239.5" y="-14.3" font-family="Helvetica,sans-Serif" font-size="14.00">▶ Run GitHub Actions for `ElysiumOS/src/utils/UtilityHelpers.java`</text>
</g>
<!-- 47f0c736&#45;e57d&#45;4cf6&#45;b2fc&#45;325a3b11f077&#45;&gt;5ae9302b&#45;0cd3&#45;4db5&#45;873e&#45;63c4c1fb3f6d -->
<g id="edge1" class="edge">
<title>47f0c736&#45;e57d&#45;4cf6&#45;b2fc&#45;325a3b11f077&#45;&gt;5ae9302b&#45;0cd3&#45;4db5&#45;873e&#45;63c4c1fb3f6d</title>
<path fill="none" stroke="black" stroke-dasharray="5,2" d="M247.57,-72.72C246.29,-64.18 244.86,-54.68 243.57,-46.08"/>
<polygon fill="black" stroke="black" points="247.02,-45.52 242.08,-36.15 240.1,-46.56 247.02,-45.52"/>
</g>
<!-- ebe787b4&#45;8e79&#45;42d9&#45;9fcd&#45;59918acaf717 -->
<g id="node5" class="node">
<title>ebe787b4&#45;8e79&#45;42d9&#45;9fcd&#45;59918acaf717</title>
<ellipse fill="white" stroke="black" cx="1453.5" cy="-99.87" rx="311.25" ry="26.74"/>
<text text-anchor="middle" x="1453.5" y="-103.67" font-family="Helvetica,sans-Serif" font-size="14.00">▶ Modify</text>
<text text-anchor="middle" x="1453.5" y="-88.67" font-family="Helvetica,sans-Serif" font-size="14.00">ElysiumOS/src/main/java/automation/AutomationService.java</text>
</g>
<!-- 62765e58&#45;00e4&#45;4c01&#45;ae31&#45;647be83f4192&#45;&gt;ebe787b4&#45;8e79&#45;42d9&#45;9fcd&#45;59918acaf717 -->
<g id="edge4" class="edge">
<title>62765e58&#45;00e4&#45;4c01&#45;ae31&#45;647be83f4192&#45;&gt;ebe787b4&#45;8e79&#45;42d9&#45;9fcd&#45;59918acaf717</title>
<path fill="none" stroke="black" d="M1107.34,-99.87C1115.59,-99.87 1123.84,-99.87 1132.09,-99.87"/>
<polygon fill="black" stroke="black" points="1132.16,-103.37 1142.16,-99.87 1132.16,-96.37 1132.16,-103.37"/>
</g>
<!-- cad28a77&#45;0925&#45;49ef&#45;bfe8&#45;ac5e60f87662 -->
<g id="node7" class="node">
<title>cad28a77&#45;0925&#45;49ef&#45;bfe8&#45;ac5e60f87662</title>
<polygon fill="white" stroke="black" points="1116.5,-36 494.5,-36 494.5,0 1116.5,0 1116.5,-36"/>
<text text-anchor="middle" x="805.5" y="-14.3" font-family="Helvetica,sans-Serif" font-size="14.00">▶ Run GitHub Actions for `ElysiumOS/src/main/java/blockchain/BlockchainService.java`</text>
</g>
<!-- 62765e58&#45;00e4&#45;4c01&#45;ae31&#45;647be83f4192&#45;&gt;cad28a77&#45;0925&#45;49ef&#45;bfe8&#45;ac5e60f87662 -->
<g id="edge3" class="edge">
<title>62765e58&#45;00e4&#45;4c01&#45;ae31&#45;647be83f4192&#45;&gt;cad28a77&#45;0925&#45;49ef&#45;bfe8&#45;ac5e60f87662</title>
<path fill="none" stroke="black" stroke-dasharray="5,2" d="M803.48,-72.72C803.8,-64.27 804.15,-54.89 804.47,-46.36"/>
<polygon fill="black" stroke="black" points="807.98,-46.27 804.86,-36.15 800.98,-46.01 807.98,-46.27"/>
</g>
<!-- ebe787b4&#45;8e79&#45;42d9&#45;9fcd&#45;59918acaf717&#45;&gt;end -->
<g id="edge7" class="edge">
<title>ebe787b4&#45;8e79&#45;42d9&#45;9fcd&#45;59918acaf717&#45;&gt;end</title>
<path fill="none" stroke="black" d="M1764.84,-99.87C1785.17,-99.87 1801.52,-99.87 1811.54,-99.87"/>
<polygon fill="black" stroke="black" points="1811.9,-103.37 1821.9,-99.87 1811.9,-96.37 1811.9,-103.37"/>
<text text-anchor="middle" x="1793.31" y="-106.67" font-family="Helvetica,sans-Serif" font-size="14.00">Finish</text>
</g>
<!-- d06db6fb&#45;191b&#45;4250&#45;ab46&#45;f6d6b27aef4e -->
<g id="node8" class="node">
<title>d06db6fb&#45;191b&#45;4250&#45;ab46&#45;f6d6b27aef4e</title>
<polygon fill="white" stroke="black" points="1769.5,-36 1137.5,-36 1137.5,0 1769.5,0 1769.5,-36"/>
<text text-anchor="middle" x="1453.5" y="-14.3" font-family="Helvetica,sans-Serif" font-size="14.00">▶ Run GitHub Actions for `ElysiumOS/src/main/java/automation/AutomationService.java`</text>
</g>
<!-- ebe787b4&#45;8e79&#45;42d9&#45;9fcd&#45;59918acaf717&#45;&gt;d06db6fb&#45;191b&#45;4250&#45;ab46&#45;f6d6b27aef4e -->
<g id="edge5" class="edge">
<title>ebe787b4&#45;8e79&#45;42d9&#45;9fcd&#45;59918acaf717&#45;&gt;d06db6fb&#45;191b&#45;4250&#45;ab46&#45;f6d6b27aef4e</title>
<path fill="none" stroke="black" stroke-dasharray="5,2" d="M1453.5,-72.72C1453.5,-64.27 1453.5,-54.89 1453.5,-46.36"/>
<polygon fill="black" stroke="black" points="1457,-46.15 1453.5,-36.15 1450,-46.15 1457,-46.15"/>
</g>
</g>
</svg>
