<?xml version="1.0" encoding="UTF-8" standalone="no"?>
<!DOCTYPE svg PUBLIC "-//W3C//DTD SVG 1.1//EN"
 "http://www.w3.org/Graphics/SVG/1.1/DTD/svg11.dtd">
<!-- Generated by graphviz version 2.43.0 (0)
 -->
<!-- Title: %3 Pages: 1 -->
<svg width="1231pt" height="238pt"
 viewBox="0.00 0.00 1231.00 237.74" xmlns="http://www.w3.org/2000/svg" xmlns:xlink="http://www.w3.org/1999/xlink">
<g id="graph0" class="graph" transform="scale(1 1) rotate(0) translate(36 201.74)">
<title>%3</title>
<polygon fill="dimgray" stroke="transparent" points="-36,36 -36,-201.74 1195,-201.74 1195,36 -36,36"/>
<text text-anchor="middle" x="579.5" y="-150.54" font-family="Helvetica,sans-Serif" font-size="14.00">Sweep&#39;s Plan &amp; Progress</text>
<!-- start -->
<g id="node1" class="node">
<title>start</title>
</g>
<!-- 43587385&#45;527b&#45;4615&#45;b14f&#45;943ea34058fd -->
<g id="node3" class="node">
<title>43587385&#45;527b&#45;4615&#45;b14f&#45;943ea34058fd</title>
<ellipse fill="yellow" stroke="black" cx="308.5" cy="-99.87" rx="255.95" ry="26.74"/>
<text text-anchor="middle" x="308.5" y="-103.67" font-family="Helvetica,sans-Serif" font-size="14.00">⋯ Modify</text>
<text text-anchor="middle" x="308.5" y="-88.67" font-family="Helvetica,sans-Serif" font-size="14.00">ElysiumOS/blockchain/contracts/ElysiumToken.sol</text>
</g>
<!-- start&#45;&gt;43587385&#45;527b&#45;4615&#45;b14f&#45;943ea34058fd -->
<g id="edge4" class="edge">
<title>start&#45;&gt;43587385&#45;527b&#45;4615&#45;b14f&#45;943ea34058fd</title>
<path fill="none" stroke="black" d="M1.38,-99.87C5.1,-99.87 20.31,-99.87 42.11,-99.87"/>
<polygon fill="black" stroke="black" points="42.2,-103.37 52.2,-99.87 42.2,-96.37 42.2,-103.37"/>
<text text-anchor="middle" x="26.76" y="-106.67" font-family="Helvetica,sans-Serif" font-size="14.00">Start</text>
</g>
<!-- end -->
<g id="node2" class="node">
<title>end</title>
</g>
<!-- 17a1234c&#45;48a3&#45;44e2&#45;8b6b&#45;7b5e2634c585 -->
<g id="node4" class="node">
<title>17a1234c&#45;48a3&#45;44e2&#45;8b6b&#45;7b5e2634c585</title>
<ellipse fill="white" stroke="black" cx="853.5" cy="-99.87" rx="246.56" ry="26.74"/>
<text text-anchor="middle" x="853.5" y="-103.67" font-family="Helvetica,sans-Serif" font-size="14.00">▶ Modify</text>
<text text-anchor="middle" x="853.5" y="-88.67" font-family="Helvetica,sans-Serif" font-size="14.00">ElysiumOS/blockchain/scripts/DeployContract.js</text>
</g>
<!-- 43587385&#45;527b&#45;4615&#45;b14f&#45;943ea34058fd&#45;&gt;17a1234c&#45;48a3&#45;44e2&#45;8b6b&#45;7b5e2634c585 -->
<g id="edge2" class="edge">
<title>43587385&#45;527b&#45;4615&#45;b14f&#45;943ea34058fd&#45;&gt;17a1234c&#45;48a3&#45;44e2&#45;8b6b&#45;7b5e2634c585</title>
<path fill="none" stroke="black" d="M564.5,-99.87C575.12,-99.87 585.75,-99.87 596.37,-99.87"/>
<polygon fill="black" stroke="black" points="596.55,-103.37 606.55,-99.87 596.55,-96.37 596.55,-103.37"/>
</g>
<!-- 093ae12c&#45;2933&#45;45bc&#45;a247&#45;21d2bcd30eae -->
<g id="node5" class="node">
<title>093ae12c&#45;2933&#45;45bc&#45;a247&#45;21d2bcd30eae</title>
<polygon fill="white" stroke="black" points="572,-36 19,-36 19,0 572,0 572,-36"/>
<text text-anchor="middle" x="295.5" y="-14.3" font-family="Helvetica,sans-Serif" font-size="14.00">▶ Run GitHub Actions for `ElysiumOS/blockchain/contracts/ElysiumToken.sol`</text>
</g>
<!-- 43587385&#45;527b&#45;4615&#45;b14f&#45;943ea34058fd&#45;&gt;093ae12c&#45;2933&#45;45bc&#45;a247&#45;21d2bcd30eae -->
<g id="edge1" class="edge">
<title>43587385&#45;527b&#45;4615&#45;b14f&#45;943ea34058fd&#45;&gt;093ae12c&#45;2933&#45;45bc&#45;a247&#45;21d2bcd30eae</title>
<path fill="none" stroke="black" stroke-dasharray="5,2" d="M304.24,-72.72C302.85,-64.18 301.31,-54.68 299.91,-46.08"/>
<polygon fill="black" stroke="black" points="303.35,-45.45 298.29,-36.15 296.44,-46.58 303.35,-45.45"/>
</g>
<!-- 17a1234c&#45;48a3&#45;44e2&#45;8b6b&#45;7b5e2634c585&#45;&gt;end -->
<g id="edge5" class="edge">
<title>17a1234c&#45;48a3&#45;44e2&#45;8b6b&#45;7b5e2634c585&#45;&gt;end</title>
<path fill="none" stroke="black" d="M1100.41,-99.87C1120.81,-99.87 1137.49,-99.87 1147.66,-99.87"/>
<polygon fill="black" stroke="black" points="1147.88,-103.37 1157.88,-99.87 1147.88,-96.37 1147.88,-103.37"/>
<text text-anchor="middle" x="1129.14" y="-106.67" font-family="Helvetica,sans-Serif" font-size="14.00">Finish</text>
</g>
<!-- 4f33b86b&#45;5a0f&#45;493e&#45;b88f&#45;3f6dacf8399e -->
<g id="node6" class="node">
<title>4f33b86b&#45;5a0f&#45;493e&#45;b88f&#45;3f6dacf8399e</title>
<polygon fill="white" stroke="black" points="1130.5,-36 590.5,-36 590.5,0 1130.5,0 1130.5,-36"/>
<text text-anchor="middle" x="860.5" y="-14.3" font-family="Helvetica,sans-Serif" font-size="14.00">▶ Run GitHub Actions for `ElysiumOS/blockchain/scripts/DeployContract.js`</text>
</g>
<!-- 17a1234c&#45;48a3&#45;44e2&#45;8b6b&#45;7b5e2634c585&#45;&gt;4f33b86b&#45;5a0f&#45;493e&#45;b88f&#45;3f6dacf8399e -->
<g id="edge3" class="edge">
<title>17a1234c&#45;48a3&#45;44e2&#45;8b6b&#45;7b5e2634c585&#45;&gt;4f33b86b&#45;5a0f&#45;493e&#45;b88f&#45;3f6dacf8399e</title>
<path fill="none" stroke="black" stroke-dasharray="5,2" d="M855.79,-72.72C856.53,-64.27 857.35,-54.89 858.1,-46.36"/>
<polygon fill="black" stroke="black" points="861.61,-46.41 859,-36.15 854.64,-45.8 861.61,-46.41"/>
</g>
</g>
</svg>
