<?xml version="1.0" encoding="UTF-8" standalone="no"?>
<!DOCTYPE svg PUBLIC "-//W3C//DTD SVG 1.1//EN"
 "http://www.w3.org/Graphics/SVG/1.1/DTD/svg11.dtd">
<!-- Generated by graphviz version 2.43.0 (0)
 -->
<!-- Title: %3 Pages: 1 -->
<svg width="701pt" height="165pt"
 viewBox="0.00 0.00 701.00 164.74" xmlns="http://www.w3.org/2000/svg" xmlns:xlink="http://www.w3.org/1999/xlink">
<g id="graph0" class="graph" transform="scale(1 1) rotate(0) translate(36 128.74)">
<title>%3</title>
<polygon fill="dimgray" stroke="transparent" points="-36,36 -36,-128.74 665,-128.74 665,36 -36,36"/>
<text text-anchor="middle" x="314.5" y="-77.54" font-family="Helvetica,sans-Serif" font-size="14.00">Sweep&#39;s Plan &amp; Progress</text>
<!-- start -->
<g id="node1" class="node">
<title>start</title>
</g>
<!-- 9c73921b&#45;9322&#45;4741&#45;8471&#45;fab787c85be2 -->
<g id="node3" class="node">
<title>9c73921b&#45;9322&#45;4741&#45;8471&#45;fab787c85be2</title>
<ellipse fill="yellow" stroke="black" cx="311.5" cy="-26.87" rx="258.6" ry="26.74"/>
<text text-anchor="middle" x="311.5" y="-30.67" font-family="Helvetica,sans-Serif" font-size="14.00">⋯ Create</text>
<text text-anchor="middle" x="311.5" y="-15.67" font-family="Helvetica,sans-Serif" font-size="14.00">ElysiumOS/ui/js/components/ThreeBackground2.js</text>
</g>
<!-- start&#45;&gt;9c73921b&#45;9322&#45;4741&#45;8471&#45;fab787c85be2 -->
<g id="edge1" class="edge">
<title>start&#45;&gt;9c73921b&#45;9322&#45;4741&#45;8471&#45;fab787c85be2</title>
<path fill="none" stroke="black" d="M1,-26.87C3.95,-26.87 19.59,-26.87 42.42,-26.87"/>
<polygon fill="black" stroke="black" points="42.62,-30.37 52.62,-26.87 42.62,-23.37 42.62,-30.37"/>
<text text-anchor="middle" x="26.85" y="-33.67" font-family="Helvetica,sans-Serif" font-size="14.00">Start</text>
</g>
<!-- end -->
<g id="node2" class="node">
<title>end</title>
</g>
<!-- 9c73921b&#45;9322&#45;4741&#45;8471&#45;fab787c85be2&#45;&gt;end -->
<g id="edge2" class="edge">
<title>9c73921b&#45;9322&#45;4741&#45;8471&#45;fab787c85be2&#45;&gt;end</title>
<path fill="none" stroke="black" d="M570.36,-26.87C590.84,-26.87 607.52,-26.87 617.68,-26.87"/>
<polygon fill="black" stroke="black" points="617.89,-30.37 627.89,-26.87 617.89,-23.37 617.89,-30.37"/>
<text text-anchor="middle" x="599.15" y="-33.67" font-family="Helvetica,sans-Serif" font-size="14.00">Finish</text>
</g>
</g>
</svg>
